<?xml version="1.0" standalone="no"?>
<!DOCTYPE svg PUBLIC "-//W3C//DTD SVG 20010904//EN"
 "http://www.w3.org/TR/2001/REC-SVG-20010904/DTD/svg10.dtd">
<svg version="1.0" xmlns="http://www.w3.org/2000/svg"
 width="880.000000pt" height="1098.000000pt" viewBox="0 0 880.000000 1098.000000"
 preserveAspectRatio="xMidYMid meet">

<g transform="translate(0.000000,1098.000000) scale(0.100000,-0.100000)"
fill="#FFFFFF" stroke="none">
<path d="M4036 10678 c-69 -79 -90 -141 -91 -265 0 -118 1 -120 85 -150 110
-40 104 -41 146 35 20 37 38 69 40 71 5 6 64 -20 70 -31 3 -5 -18 -90 -48
-189 l-53 -179 -43 0 -43 0 7 78 c3 42 7 81 8 86 2 14 -175 56 -195 46 -27
-15 -77 -77 -103 -128 -50 -99 -58 -260 -15 -303 16 -16 134 -59 164 -59 7 0
29 31 49 70 l37 70 40 -20 c46 -24 48 -1 -20 -227 -25 -85 -50 -154 -54 -154
-4 1 -23 1 -42 1 l-35 0 2 87 3 86 -70 18 c-106 28 -117 26 -163 -26 -78 -88
-114 -210 -96 -321 l9 -59 56 -27 c31 -15 74 -30 96 -34 l39 -6 38 71 c20 39
41 71 45 71 5 0 14 -7 21 -15 7 -8 18 -15 26 -15 7 0 15 -4 19 -10 3 -5 -18
-90 -47 -189 l-53 -181 -49 0 c-41 0 -47 3 -42 16 4 10 9 49 13 88 l6 71 -89
22 c-84 21 -90 21 -118 5 -94 -55 -161 -265 -126 -393 9 -33 15 -37 90 -63 44
-16 86 -26 94 -23 7 3 30 35 50 71 l37 66 40 -21 c31 -15 39 -24 34 -38 -3
-10 -28 -94 -55 -187 -28 -92 -51 -168 -53 -169 -1 -1 -21 0 -45 3 l-43 4 6
47 c3 25 8 62 11 82 l5 37 -95 23 -96 23 -44 -43 c-51 -51 -89 -123 -106 -204
-12 -59 -6 -146 12 -180 11 -21 58 -43 130 -62 45 -12 49 -12 65 9 10 12 29
45 42 73 l24 51 38 -20 c22 -11 39 -27 39 -37 0 -9 -22 -88 -48 -176 l-48
-160 -45 0 c-44 0 -44 0 -43 35 0 19 2 57 5 85 l4 49 -89 23 c-98 24 -103 23
-153 -29 -83 -87 -125 -254 -90 -358 10 -29 21 -38 67 -57 30 -12 71 -24 90
-28 35 -6 35 -6 74 65 21 39 41 69 44 67 4 -1 24 -11 44 -20 l37 -17 -15 -52
c-9 -29 -34 -111 -56 -183 -45 -147 -53 -237 -25 -292 9 -17 47 -58 84 -90
101 -87 169 -157 190 -194 16 -30 18 -65 21 -296 l3 -263 -49 0 c-125 0 -364
-48 -542 -108 -386 -131 -719 -392 -937 -732 -91 -142 -182 -363 -217 -531
-30 -138 -41 -331 -28 -474 67 -733 491 -1169 1482 -1522 69 -24 249 -82 400
-129 433 -133 652 -214 963 -355 486 -220 877 -524 973 -757 29 -71 32 -176 7
-230 -22 -47 -105 -130 -165 -165 -26 -15 -75 -34 -109 -43 -85 -22 -155 -13
-246 32 -129 64 -260 191 -569 549 -243 281 -485 518 -628 613 -276 185 -490
250 -786 239 -715 -26 -1158 -453 -1287 -1242 -21 -130 -29 -520 -13 -677 l12
-128 94 0 94 0 0 73 c1 227 63 376 190 453 75 45 154 64 275 64 175 0 280 -42
660 -260 599 -345 976 -434 1477 -349 603 102 1128 492 1377 1021 237 504 204
1039 -90 1452 -202 283 -499 513 -944 731 -293 143 -470 208 -975 362 -173 52
-330 101 -350 108 -19 8 -98 37 -175 66 -260 97 -533 231 -730 359 -470 306
-606 624 -353 823 163 129 320 140 480 34 100 -67 170 -140 350 -366 292 -368
385 -476 503 -589 223 -215 432 -333 680 -388 128 -28 375 -24 536 9 507 102
850 444 990 984 56 220 71 344 73 603 0 129 -3 279 -7 333 l-9 97 -99 0 -99 0
0 -77 c-1 -228 -76 -390 -210 -458 -104 -53 -284 -71 -398 -41 -83 22 -241
104 -422 219 l-165 104 -8 309 c-22 853 8 1058 253 1714 144 386 178 525 187
755 8 234 -28 394 -136 600 -49 93 -52 104 -49 156 5 68 45 153 118 254 61 84
123 210 140 284 57 248 -74 518 -309 634 l-84 42 -127 0 c-121 0 -129 -1 -185
-30 -54 -27 -81 -54 -135 -132 -13 -19 -21 -21 -63 -16 -33 4 -47 10 -43 18 2
7 8 44 11 82 l7 69 -83 22 c-46 12 -92 22 -101 22 -9 0 -37 -24 -62 -52z"/>
</g>
</svg>
